{
  "accessors": [
    {
      "bufferView": 2,
      "componentType": 5126,
      "count": 65532,
      "max": [
        65.68331146240234,
        321.1420593261719,
        188.1962890625
      ],
      "min": [
        -89.7309799194336,
        -307.6406555175781,
        -146.01312255859375
      ],
      "type": "VEC3"
    },
    {
      "bufferView": 2,
      "byteOffset": 786384,
      "componentType": 5126,
      "count": 65532,
      "max": [
        0.9999988079071045,
        0.999936044216156,
        0.9999210834503174
      ],
      "min": [
        -0.9999643564224243,
        -0.9998565912246704,
        -0.9999863505363464
      ],
      "type": "VEC3"
    },
    {
      "bufferView": 1,
      "componentType": 5126,
      "count": 65532,
      "max": [
        0.9980400204658508,
        0.5917500257492065
      ],
      "min": [
        0.0019499999471008778,
        0.0019500255584716797
      ],
      "type": "VEC2"
    },
    {
      "bufferView": 0,
      "componentType": 5125,
      "count": 365121,
      "type": "SCALAR"
    },
    {
      "bufferView": 2,
      "byteOffset": 1572768,
      "componentType": 5126,
      "count": 9247,
      "max": [
        65.26094055175781,
        307.8341979980469,
        168.94895935058594
      ],
      "min": [
        -67.73728942871094,
        -306.30126953125,
        -141.42202758789063
      ],
      "type": "VEC3"
    },
    {
      "bufferView": 2,
      "byteOffset": 1683732,
      "componentType": 5126,
      "count": 9247,
      "max": [
        0.9999265670776367,
        0.9976692795753479,
        0.9985711574554443
      ],
      "min": [
        -0.9986059665679932,
        -0.9987323880195618,
        -0.9993074536323547
      ],
      "type": "VEC3"
    },
    {
      "bufferView": 1,
      "byteOffset": 524256,
      "componentType": 5126,
      "count": 9247,
      "max": [
        0.9895600080490112,
        0.584879994392395
      ],
      "min": [
        0.023189999163150787,
        0.0019500255584716797
      ],
      "type": "VEC2"
    },
    {
      "bufferView": 0,
      "byteOffset": 1460484,
      "componentType": 5125,
      "count": 29997,
      "type": "SCALAR"
    }
  ],
  "asset": {
    "extras": {
      "author": "Vyacheslav (https://sketchfab.com/borovikmotion)",
      "license": "CC-BY-4.0 (http://creativecommons.org/licenses/by/4.0/)",
      "source": "https://sketchfab.com/3d-models/funny-rubber-chicken-ecaa22bd52ee46b1bc56c8b366391b58",
      "title": "Funny Rubber Chicken"
    },
    "generator": "Sketchfab-12.67.0",
    "version": "2.0"
  },
  "bufferViews": [
    {
      "buffer": 0,
      "byteLength": 1580472,
      "name": "floatBufferViews",
      "target": 34963
    },
    {
      "buffer": 0,
      "byteLength": 598232,
      "byteOffset": 1580472,
      "byteStride": 8,
      "name": "floatBufferViews",
      "target": 34962
    },
    {
      "buffer": 0,
      "byteLength": 1794696,
      "byteOffset": 2178704,
      "byteStride": 12,
      "name": "floatBufferViews",
      "target": 34962
    }
  ],
  "buffers": [
    {
      "byteLength": 3973400,
      "uri": "scene.bin"
    }
  ],
  "images": [
    {
      "uri": "textures/material_baseColor.png"
    }
  ],
  "materials": [
    {
      "doubleSided": true,
      "name": "material",
      "pbrMetallicRoughness": {
        "baseColorTexture": {
          "index": 0
        },
        "metallicFactor": 0.0,
        "roughnessFactor": 0.6
      }
    }
  ],
  "meshes": [
    {
      "name": "chicken_Mat_0",
      "primitives": [
        {
          "attributes": {
            "NORMAL": 1,
            "POSITION": 0,
            "TEXCOORD_0": 2
          },
          "indices": 3,
          "material": 0,
          "mode": 4
        }
      ]
    },
    {
      "name": "chicken_Mat_0",
      "primitives": [
        {
          "attributes": {
            "NORMAL": 5,
            "POSITION": 4,
            "TEXCOORD_0": 6
          },
          "indices": 7,
          "material": 0,
          "mode": 4
        }
      ]
    }
  ],
  "nodes": [
    {
      "children": [
        1
      ],
      "matrix": [
        -2.220446049250313e-16,
        -3.828568672208042e-16,
        1.0,
        0.0,
        1.0,
        -4.930380657631324e-32,
        2.220446049250313e-16,
        0.0,
        -2.465190328815662e-32,
        1.0,
        3.828568672208042e-16,
        0.0,
        -28.04414939880371,
        -8.889864891318058e-16,
        -3.9963607788085938,
        1.0
      ],
      "name": "Sketchfab_model"
    },
    {
      "children": [
        2
      ],
      "matrix": [
        1.0,
        0.0,
        0.0,
        0.0,
        0.0,
        0.0,
        1.0,
        0.0,
        0.0,
        -1.0,
        0.0,
        0.0,
        0.0,
        0.0,
        0.0,
        1.0
      ],
      "name": "a2a4d0ccce7040fc8fb1faf42bcbd7b8.fbx"
    },
    {
      "children": [
        3,
        5
      ],
      "name": "RootNode"
    },
    {
      "children": [
        4
      ],
      "matrix": [
        -0.9325353359906137,
        -0.22323752862519047,
        -0.2838007275223062,
        0.0,
        -0.21356642973806045,
        0.974764077001875,
        -0.06499518655732,
        0.0,
        0.2911481190353307,
        0.0,
        -0.9566779880305538,
        0.0,
        1009.9036254882813,
        185.1077423095703,
        301.85711669921875,
        1.0
      ],
      "name": "CINEMA_4D_Editor"
    },
    {
      "name": "Object_4"
    },
    {
      "children": [
        6,
        7
      ],
      "matrix": [
        0.9999999999999969,
        7.699083213884076e-08,
        1.7105841397213043e-08,
        0.0,
        6.177023869504867e-08,
        -0.8994187370511915,
        0.4370880179566081,
        0.0,
        4.903708448607517e-08,
        -0.4370880179566057,
        -0.8994187370511932,
        0.0,
        0.0,
        0.0,
        0.0,
        1.0
      ],
      "name": "chicken"
    },
    {
      "mesh": 0,
      "name": "chicken_Mat_0"
    },
    {
      "mesh": 1,
      "name": "chicken_Mat_0"
    }
  ],
  "samplers": [
    {
      "magFilter": 9729,
      "minFilter": 9987,
      "wrapS": 10497,
      "wrapT": 10497
    }
  ],
  "scene": 0,
  "scenes": [
    {
      "name": "Sketchfab_Scene",
      "nodes": [
        0
      ]
    }
  ],
  "textures": [
    {
      "sampler": 0,
      "source": 0
    }
  ]
}
