{
  "accessors": [
    {
      "bufferView": 2,
      "componentType": 5126,
      "count": 475,
      "max": [
        1.386199951171875,
        1.756100058555603,
        2.122299909591675
      ],
      "min": [
        -1.386199951171875,
        -1.756100058555603,
        -2.122299909591675
      ],
      "type": "VEC3"
    },
    {
      "bufferView": 2,
      "byteOffset": 5700,
      "componentType": 5126,
      "count": 475,
      "max": [
        0.9939508438110352,
        0.9975613951683044,
        0.9971444606781006
      ],
      "min": [
        -0.9971605539321899,
        -0.9988362789154053,
        -0.9897418022155762
      ],
      "type": "VEC3"
    },
    {
      "bufferView": 3,
      "componentType": 5126,
      "count": 475,
      "max": [
        0.9993777871131897,
        0.9593129754066467,
        0.995329737663269,
        1.0
      ],
      "min": [
        -0.9993497133255005,
        -0.9888448715209961,
        -0.9968169927597046,
        1.0
      ],
      "type": "VEC4"
    },
    {
      "bufferView": 1,
      "componentType": 5126,
      "count": 475,
      "max": [
        0.9994999766349792,
        0.9944999814033508
      ],
      "min": [
        0.0005000000237487257,
        0.0005000000237487257
      ],
      "type": "VEC2"
    },
    {
      "bufferView": 0,
      "componentType": 5125,
      "count": 2562,
      "type": "SCALAR"
    }
  ],
  "asset": {
    "extras": {
      "author": "Shedmon (https://sketchfab.com/shedmon)",
      "license": "CC-BY-4.0 (http://creativecommons.org/licenses/by/4.0/)",
      "source": "https://sketchfab.com/3d-models/mask-724a39fedf834c83be2b1c29509914ba",
      "title": "Mask"
    },
    "generator": "Sketchfab-15.1.0",
    "version": "2.0"
  },
  "bufferViews": [
    {
      "buffer": 0,
      "byteLength": 10248,
      "name": "floatBufferViews",
      "target": 34963
    },
    {
      "buffer": 0,
      "byteLength": 3800,
      "byteOffset": 10248,
      "byteStride": 8,
      "name": "floatBufferViews",
      "target": 34962
    },
    {
      "buffer": 0,
      "byteLength": 11400,
      "byteOffset": 14048,
      "byteStride": 12,
      "name": "floatBufferViews",
      "target": 34962
    },
    {
      "buffer": 0,
      "byteLength": 7600,
      "byteOffset": 25448,
      "byteStride": 16,
      "name": "floatBufferViews",
      "target": 34962
    }
  ],
  "buffers": [
    {
      "byteLength": 33048,
      "uri": "scene.bin"
    }
  ],
  "images": [
    {
      "uri": "textures/mask_with_hat_baseColor.png"
    },
    {
      "uri": "textures/mask_with_hat_metallicRoughness.png"
    },
    {
      "uri": "textures/mask_with_hat_normal.png"
    }
  ],
  "materials": [
    {
      "doubleSided": true,
      "name": "mask_with_hat",
      "normalTexture": {
        "index": 2
      },
      "occlusionTexture": {
        "index": 1
      },
      "pbrMetallicRoughness": {
        "baseColorTexture": {
          "index": 0
        },
        "metallicRoughnessTexture": {
          "index": 1
        }
      }
    }
  ],
  "meshes": [
    {
      "name": "Object_0",
      "primitives": [
        {
          "attributes": {
            "NORMAL": 1,
            "POSITION": 0,
            "TANGENT": 2,
            "TEXCOORD_0": 3
          },
          "indices": 4,
          "material": 0,
          "mode": 4
        }
      ]
    }
  ],
  "nodes": [
    {
      "children": [
        1
      ],
      "matrix": [
        1.0,
        0.0,
        0.0,
        0.0,
        0.0,
        2.220446049250313e-16,
        -1.0,
        0.0,
        0.0,
        1.0,
        2.220446049250313e-16,
        0.0,
        0.0,
        0.0,
        0.0,
        1.0
      ],
      "name": "Sketchfab_model"
    },
    {
      "children": [
        2
      ],
      "name": "3dd81385670542b09f9f13826b368101.obj.cleaner.materialmerger.gles"
    },
    {
      "mesh": 0,
      "name": "Object_2"
    }
  ],
  "samplers": [
    {
      "magFilter": 9729,
      "minFilter": 9987,
      "wrapS": 10497,
      "wrapT": 10497
    }
  ],
  "scene": 0,
  "scenes": [
    {
      "name": "Sketchfab_Scene",
      "nodes": [
        0
      ]
    }
  ],
  "textures": [
    {
      "sampler": 0,
      "source": 0
    },
    {
      "sampler": 0,
      "source": 1
    },
    {
      "sampler": 0,
      "source": 2
    }
  ]
}
