{
  "accessors": [
    {
      "bufferView": 2,
      "componentType": 5126,
      "count": 1604,
      "max": [
        127.28720092773438,
        128.30430603027344,
        148.50669860839844
      ],
      "min": [
        -127.28720092773438,
        -166.44419860839844,
        -194.7729949951172
      ],
      "type": "VEC3"
    },
    {
      "bufferView": 2,
      "byteOffset": 19248,
      "componentType": 5126,
      "count": 1604,
      "max": [
        0.9998059868812561,
        1.0,
        0.999775230884552
      ],
      "min": [
        -0.9998704195022583,
        -1.0,
        -0.9996722340583801
      ],
      "type": "VEC3"
    },
    {
      "bufferView": 3,
      "componentType": 5126,
      "count": 1604,
      "max": [
        0.999991774559021,
        0.9999982118606567,
        1.0,
        1.0
      ],
      "min": [
        -0.999847948551178,
        -0.9999757409095764,
        -0.9999477863311768,
        -1.0
      ],
      "type": "VEC4"
    },
    {
      "bufferView": 1,
      "componentType": 5126,
      "count": 1604,
      "max": [
        0.9923999905586243,
        0.9944000244140625
      ],
      "min": [
        0.007300000172108412,
        0.008100000210106373
      ],
      "type": "VEC2"
    },
    {
      "bufferView": 0,
      "componentType": 5125,
      "count": 6486,
      "type": "SCALAR"
    }
  ],
  "asset": {
    "extras": {
      "author": "VirtualBG (https://sketchfab.com/undereality)",
      "license": "CC-BY-NC-4.0 (http://creativecommons.org/licenses/by-nc/4.0/)",
      "source": "https://sketchfab.com/3d-models/vintage-helmet-4899bcd2b3c644dfb18601d0a5281ec7",
      "title": "Vintage Helmet"
    },
    "generator": "Sketchfab-12.66.0",
    "version": "2.0"
  },
  "bufferViews": [
    {
      "buffer": 0,
      "byteLength": 25944,
      "name": "floatBufferViews",
      "target": 34963
    },
    {
      "buffer": 0,
      "byteLength": 12832,
      "byteOffset": 25944,
      "byteStride": 8,
      "name": "floatBufferViews",
      "target": 34962
    },
    {
      "buffer": 0,
      "byteLength": 38496,
      "byteOffset": 38776,
      "byteStride": 12,
      "name": "floatBufferViews",
      "target": 34962
    },
    {
      "buffer": 0,
      "byteLength": 25664,
      "byteOffset": 77272,
      "byteStride": 16,
      "name": "floatBufferViews",
      "target": 34962
    }
  ],
  "buffers": [
    {
      "byteLength": 102936,
      "uri": "scene.bin"
    }
  ],
  "images": [
    {
      "uri": "textures/08___Default_baseColor.jpeg"
    },
    {
      "uri": "textures/08___Default_normal.jpeg"
    }
  ],
  "materials": [
    {
      "doubleSided": true,
      "name": "08___Default",
      "normalTexture": {
        "index": 1,
        "scale": 0.1
      },
      "pbrMetallicRoughness": {
        "baseColorTexture": {
          "index": 0
        },
        "metallicFactor": 0.0,
        "roughnessFactor": 0.29963853370543997
      }
    }
  ],
  "meshes": [
    {
      "name": "Object_0",
      "primitives": [
        {
          "attributes": {
            "NORMAL": 1,
            "POSITION": 0,
            "TANGENT": 2,
            "TEXCOORD_0": 3
          },
          "indices": 4,
          "material": 0,
          "mode": 4
        }
      ]
    }
  ],
  "nodes": [
    {
      "children": [
        1
      ],
      "matrix": [
        1.0,
        0.0,
        0.0,
        0.0,
        0.0,
        2.220446049250313e-16,
        -1.0,
        0.0,
        0.0,
        1.0,
        2.220446049250313e-16,
        0.0,
        0.0,
        0.0,
        0.0,
        1.0
      ],
      "name": "Sketchfab_model"
    },
    {
      "children": [
        2
      ],
      "name": "model.obj.cleaner.gles"
    },
    {
      "mesh": 0,
      "name": "Object_2"
    }
  ],
  "samplers": [
    {
      "magFilter": 9729,
      "minFilter": 9987,
      "wrapS": 10497,
      "wrapT": 10497
    }
  ],
  "scene": 0,
  "scenes": [
    {
      "name": "Sketchfab_Scene",
      "nodes": [
        0
      ]
    }
  ],
  "textures": [
    {
      "sampler": 0,
      "source": 0
    },
    {
      "sampler": 0,
      "source": 1
    }
  ]
}
